<?xml version="1.0" encoding="utf-8"?>
<!-- Generator: Adobe Illustrator 26.2.1, SVG Export Plug-In . SVG Version: 6.00 Build 0)  -->
<svg version="1.1" id="Layer_1" xmlns="http://www.w3.org/2000/svg" xmlns:xlink="http://www.w3.org/1999/xlink" x="0px" y="0px"
	 viewBox="0 0 512 281.9" style="enable-background:new 0 0 512 281.9;" xml:space="preserve">
<style type="text/css">
	.st0{fill:#FFFFFF;}
</style>
<g>
	<path class="st0" d="M21.5,268.8L35,255.9c7-6.6,8.4-11.1,8.4-16c0-9-7.1-14.6-18.1-14.6c-8.3,0-15.4,3.1-19.3,8.4l6.6,5.1
		c2.8-3.6,7-5.3,11.9-5.3c6.2,0,9.4,2.7,9.4,7.3c0,2.8-0.9,5.8-5.8,10.5L8,270.5v6.3h37.5v-8H21.5z M78,277.5c8.3,0,15.5-3,20.2-8.5
		l-6.1-5.8c-3.7,4.1-8.3,6-13.6,6c-10.5,0-18.1-7.4-18.1-17.9s7.6-17.9,18.1-17.9c5.3,0,9.9,2,13.6,6l6.1-5.7
		c-4.7-5.5-11.8-8.5-20.1-8.5c-15.6,0-27.2,11-27.2,26.1C50.9,266.5,62.5,277.5,78,277.5 M107.3,276.8h36v-8h-26.6V226h-9.4V276.8z
		 M173.5,277.5c15.8,0,27.4-11,27.4-26.1c0-15.1-11.6-26.1-27.4-26.1s-27.4,11.1-27.4,26.1C146.2,266.4,157.8,277.5,173.5,277.5
		 M173.5,269.2c-10.2,0-17.9-7.5-17.9-17.9c0-10.4,7.6-17.9,17.9-17.9s17.9,7.5,17.9,17.9C191.4,261.7,183.8,269.2,173.5,269.2
		 M232.8,277.5c13.9,0,22.2-8.1,22.2-22.9V226h-9.3v28.3c0,10.5-4.6,15-12.8,15c-8.2,0-12.9-4.5-12.9-15V226h-9.4v28.7
		C210.5,269.4,218.8,277.5,232.8,277.5 M268.2,276.8h22.2c16.5,0,27.7-10.2,27.7-25.4c0-15.2-11.3-25.4-27.7-25.4h-22.2V276.8z
		 M277.6,268.8v-34.8H290c11.3,0,18.7,6.9,18.7,17.4c0,10.5-7.3,17.4-18.7,17.4H277.6z M363.9,226v34.4l-28-34.4h-7.8v50.8h9.4
		v-34.4l28,34.4h7.8V226H363.9z M386.9,276.8h9.4V226h-9.4V276.8z M445.9,226v34.4l-28-34.4h-7.8v50.8h9.4v-34.4l28,34.4h7.8V226
		H445.9z M478.3,268.9v-14h24.5v-7.8h-24.5v-13.2H506V226h-37.1v50.8H507v-7.9H478.3z"/>
	<path class="st0" d="M277,119.7l20.3-26 M145.4,128c0-23.3,16.2-42.8,37.9-47.9c-0.8-4.1-1.2-8.4-1.3-12.7
		c-28.1,5.8-49.2,30.7-49.2,60.6c0,34.2,27.7,61.9,61.9,61.9h11.7l9.8-12.7h-21.6C167.5,177.2,145.4,155.2,145.4,128 M264.3,177.2
		l-9.9,12.7h40.8h16h7.1c34.2,0,61.9-27.7,61.9-61.9c0-29.8-21.1-54.7-49.2-60.6c-0.1,4.3-0.5,8.6-1.3,12.7
		c21.7,5.1,37.9,24.6,37.9,47.9c0,26.3-20.7,47.8-46.7,49.1l0,0.1h-16H264.3z M248.3,177.2l31.3-40.2l23.4-30l4.6-5.9
		c2-2.9,3.7-5.9,5.2-9.1c1.8-4,3.3-8.3,4.2-12.7l-0.5-0.4h0.6c0.9-4.1,1.3-8.3,1.3-12.7c0-34.2-27.7-61.9-61.9-61.9
		S194.6,32,194.6,66.2c0,4.3,0.4,8.6,1.3,12.7c5,24,23.9,42.9,47.9,47.9c3.5,0.7,7.1,1.2,10.7,1.3l0.9,0l10.6-13.6l-1.1,0.2
		c-2.7,0.5-5.6,0.7-8.4,0.7c-5.2,0-10.3-0.8-15-2.3c-15.1-4.8-27.1-16.8-31.9-31.9c-1.4-4.3-2.2-8.9-2.3-13.7c0-0.4,0-0.9,0-1.3
		c0-0.5,0-1,0-1.5c0.8-25.6,21.1-46.3,46.5-47.6c0.6,0,1.2-0.1,1.8-0.1l0.8,0c27.2,0,49.2,22,49.2,49.2v4.3l-0.2-0.1
		c-0.7,8.6-3.7,16.5-8.2,23.3c-1.2,1.8-2.5,3.5-4,5.1l-0.1,0.1L277,119.7l-16.2,20.8l-9.4,12.1l-19,24.4l-0.2,0.2l-9.8,12.7h16
		L248.3,177.2z"/>
</g>
</svg>
